<svg xmlns="http://www.w3.org/2000/svg" width="87.356mm" height="80.349mm" viewBox="0 0 247.623 227.762"><path d="m226.202 120.188-6.155 15.365M222.043 115.818a5.486 5.486 0 1 0 7.133-3.054 5.485 5.485 0 0 0-7.132 3.053Z" style="fill:#fff;stroke:#000;stroke-linecap:round;stroke-linejoin:round;stroke-width:2.122px"/><circle cx="207.04" cy="168.027" r="39.51" style="fill:#8fc31f;stroke:#000;stroke-linecap:round;stroke-miterlimit:10;stroke-width:2.122px" transform="rotate(-60.67 207.042 168.027)"/><path d="M187.493 160.197c-4.324 10.796.922 23.053 11.718 27.377 10.796 4.324 23.052-.922 27.377-11.718 4.324-10.795-.922-23.052-11.718-27.376-10.795-4.324-23.052.922-27.376 11.718Z" style="fill:#fff;stroke:#000;stroke-linecap:round;stroke-linejoin:round;stroke-width:2.122px"/><path d="M214.868 169.685c-.699 1.744-.557 3.439.313 3.788.876.351 2.145-.779 2.844-2.523.699-1.746.56-3.437-.316-3.788-.87-.348-2.141.777-2.841 2.524ZM197.356 162.67c-.699 1.744-.559 3.439.315 3.789.87.349 2.144-.779 2.843-2.524.699-1.746.555-3.439-.315-3.788-.874-.35-2.144.776-2.843 2.523Z" style="stroke-width:0"/><path d="M204.96 174.008c-1.799-.7-3.694-.61-5.272.091a6.979 6.979 0 0 1-.137-5.402l13.052 5.08a6.975 6.975 0 0 1-3.801 3.907c-.683-1.603-2.026-2.969-3.842-3.676Z" style="stroke:#000;stroke-linecap:round;stroke-linejoin:round;stroke-width:1.002px"/><path d="M199.689 174.099c1.578-.701 3.473-.791 5.272-.091 1.816.707 3.159 2.073 3.842 3.676a6.974 6.974 0 0 1-5.264.079 6.977 6.977 0 0 1-3.849-3.664Z" style="fill:#ea5514;stroke:#000;stroke-linecap:round;stroke-linejoin:round;stroke-width:1.002px"/><path d="m97.843 153.374-19.979.888 1.426 8.745s-1.043 18.022-1.635 29.118h20.443c-.085-14.569-.255-38.751-.255-38.751Z" style="fill:#00b4ed;stroke:#000;stroke-linecap:round;stroke-linejoin:round;stroke-width:2.122px"/><path d="M77.656 192.125c-.18 3.376-.369 6.118-.556 7.505h21.046c-.009-1.894-.024-4.491-.047-7.505H77.656Z" style="fill:#fff100;stroke:#000;stroke-linecap:round;stroke-linejoin:round;stroke-width:2.122px"/><path d="M77.1 199.63c-.362 4.563-.607 10.01-.865 11.077-.613 2.516-9.882 5.985-7.682 11.887 2.489 6.676 28.139 4.661 29.083-2.076.454-3.222.547-12.058.511-20.888H77.101Z" style="fill:#fff;stroke:#000;stroke-linecap:round;stroke-linejoin:round;stroke-width:2.122px"/><path d="m107.873 153.374 19.979.888-1.426 8.745s1.043 18.022 1.635 29.118h-20.443c.085-14.569.255-38.751.255-38.751Z" style="fill:#00b4ed;stroke:#000;stroke-linecap:round;stroke-linejoin:round;stroke-width:2.122px"/><path d="M128.06 192.125c.18 3.376.369 6.118.556 7.505H107.57c.009-1.894.024-4.491.047-7.505h20.443Z" style="fill:#fff100;stroke:#000;stroke-linecap:round;stroke-linejoin:round;stroke-width:2.122px"/><path d="M128.616 199.63c.303 4.393.607 10.01.865 11.077.613 2.516 9.882 5.985 7.682 11.887-2.489 6.676-28.139 4.661-29.083-2.076-.454-3.222-.547-12.058-.511-20.888h21.046Z" style="fill:#fff;stroke:#000;stroke-linecap:round;stroke-linejoin:round;stroke-width:2.122px"/><path d="M43.16 114.9s-11.711-4.822-25.661-20.322C9.576 85.775-6.248 97.74 4.927 108.356c17.222 16.361 43.745 17.911 52.356 19.634 8.611 1.722-9.3-12.572-14.122-13.089ZM162.556 114.9s11.711-4.822 25.661-20.322c7.923-8.803 23.747 3.162 12.572 13.778-17.222 16.361-43.745 17.911-52.356 19.634-8.611 1.722 9.3-12.572 14.122-13.089ZM102.858 1.061c-15.819 0-28.643 4.592-28.643 10.256 0 3.808 5.8 2.425 14.404 1.109v20.369c0 .913.746 1.659 1.659 1.659h4.695c.912 0 1.659-.747 1.659-1.659V11.438a73.65 73.65 0 0 1 6.226-.279c2.041 0 4.03.098 5.949.255v21.382c0 .913.747 1.659 1.659 1.659h4.695c.912 0 1.659-.747 1.659-1.659V12.384c8.757 1.327 14.681 2.781 14.681-1.067 0-5.664-12.824-10.256-28.644-10.256Z" style="fill:#00b4ed;stroke:#000;stroke-linecap:round;stroke-linejoin:round;stroke-width:2.122px"/><path d="M36.964 62.979c-9.232 6.992-16.262 7.435-19.584 3.938-3.329-3.495-1.7-9.605 7.534-16.594 9.232-6.991 35.225-20.669 38.552-17.174 3.326 3.494-17.271 22.838-26.502 29.83ZM168.752 62.979c9.233 6.992 16.262 7.435 19.584 3.938 3.329-3.495 1.7-9.605-7.534-16.594-9.232-6.991-35.225-20.669-38.553-17.174-3.326 3.494 17.271 22.838 26.502 29.83Z" style="stroke-width:0"/><path d="M167.055 101.976c0 60.575-8.17 77.483-64.199 77.483-60.111 0-64.195-19.02-64.195-77.483 0-57.053 7.005-77.482 64.195-77.482 56.028 0 64.199 24.655 64.199 77.482Z" style="fill:#00b4ed;stroke:#000;stroke-linecap:round;stroke-linejoin:round;stroke-width:2.122px"/><path d="M155.503 81.101c0 36.779-6.7 47.044-52.647 47.044-49.295 0-52.644-11.548-52.644-47.044 0-34.64 5.744-47.043 52.644-47.043 45.947 0 52.647 14.969 52.647 47.043Z" style="fill:#fff;stroke:#000;stroke-linecap:round;stroke-linejoin:round;stroke-width:2.122px"/><path d="M67.915 146.161c0 3.969-2.239 7.187-5.002 7.187s-5.001-3.218-5.001-7.187 2.239-7.187 5.001-7.187 5.002 3.218 5.002 7.187ZM147.804 146.161c0 3.969-2.239 7.187-5.001 7.187s-5.002-3.218-5.002-7.187 2.239-7.187 5.002-7.187 5.001 3.218 5.001 7.187Z" style="fill:#fff100;stroke:#000;stroke-linecap:round;stroke-linejoin:round;stroke-width:2.122px"/><path d="M103.431 139.075H92.179l3.915 7.024c.634.956 1.42 1.352 2.854 1.352h2.695l-2.299-4.365h3.562c2.913 0 5.138 1.563 5.629 4.365h5.003c-.699-4.764-5.097-8.376-10.106-8.376ZM108.534 148.918c-.491 2.802-2.715 4.365-5.629 4.365h-3.562l2.299-4.365h-2.695c-1.433 0-2.22.398-2.854 1.353l-3.915 7.024h11.252c5.009 0 9.408-3.612 10.106-8.377h-5.003Z" style="fill:#fff;stroke-width:0"/><path d="M102.767 77.823v4.296" style="fill:none;stroke:#000;stroke-linecap:round;stroke-linejoin:round;stroke-width:2.053px"/><path d="M86.323 75.534c0 3.074-.911 5.56-3.26 5.56-2.216 0-3.265-2.487-3.265-5.56s1.02-5.56 3.265-5.56c2.259 0 3.26 2.483 3.26 5.56ZM125.918 75.534c0 3.074-.911 5.56-3.26 5.56-2.216 0-3.265-2.487-3.265-5.56s1.02-5.56 3.265-5.56c2.26 0 3.26 2.483 3.26 5.56Z" style="stroke-width:0"/><path d="M102.708 93.495c2.967 0 5.63 1.617 7.499 4.185 1.978-2.661 3.207-6.356 3.207-10.445H91.89c0 4.128 1.254 7.852 3.266 10.519 1.871-2.611 4.557-4.258 7.551-4.258Z" style="stroke:#000;stroke-linecap:round;stroke-linejoin:round;stroke-width:1.799px"/><path d="M110.207 97.681c-1.869-2.568-4.532-4.185-7.499-4.185-2.994 0-5.68 1.648-7.551 4.258 1.938 2.569 4.579 4.157 7.496 4.157 2.945 0 5.611-1.616 7.554-4.23Z" style="fill:#ea5514;stroke:#000;stroke-linecap:round;stroke-linejoin:round;stroke-width:1.799px"/></svg>